<svg xmlns="http://www.w3.org/2000/svg" viewBox="0 0 640 360" role="img" aria-label="Blue city board background">
  <defs>
    <linearGradient id="sky" x1="0" x2="1" y1="0" y2="1">
      <stop offset="0" stop-color="#043f9e"/>
      <stop offset=".55" stop-color="#0ea5e9"/>
      <stop offset="1" stop-color="#0f172a"/>
    </linearGradient>
    <linearGradient id="glow" x1="0" x2="0" y1="0" y2="1">
      <stop offset="0" stop-color="#ffffff" stop-opacity=".62"/>
      <stop offset="1" stop-color="#ffffff" stop-opacity="0"/>
    </linearGradient>
  </defs>
  <rect width="640" height="360" fill="url(#sky)"/>
  <circle cx="94" cy="70" r="92" fill="#67e8f9" opacity=".18"/>
  <path d="M0 220h640v140H0z" fill="#071629" opacity=".72"/>
  <g fill="#123255">
    <rect x="34" y="164" width="42" height="196"/>
    <rect x="92" y="130" width="58" height="230"/>
    <rect x="170" y="190" width="54" height="170"/>
    <rect x="250" y="112" width="66" height="248"/>
    <rect x="342" y="154" width="48" height="206"/>
    <rect x="418" y="96" width="76" height="264"/>
    <rect x="522" y="176" width="54" height="184"/>
  </g>
  <g fill="#dff7ff" opacity=".72">
    <rect x="106" y="154" width="22" height="5"/><rect x="106" y="180" width="30" height="5"/><rect x="106" y="206" width="18" height="5"/>
    <rect x="264" y="142" width="28" height="5"/><rect x="264" y="176" width="36" height="5"/><rect x="264" y="210" width="24" height="5"/>
    <rect x="438" y="126" width="34" height="5"/><rect x="438" y="166" width="24" height="5"/><rect x="438" y="206" width="38" height="5"/>
  </g>
  <rect width="640" height="180" fill="url(#glow)"/>
</svg>
