<svg xmlns="http://www.w3.org/2000/svg" viewBox="0 0 96 96" role="img" aria-label="Meetings">
  <defs>
    <filter id="softShadow" x="-30%" y="-30%" width="160%" height="160%">
      <feDropShadow dx="0" dy="3" stdDeviation="3" flood-color="#000000" flood-opacity=".2"/>
    </filter>
  </defs>
  <g filter="url(#softShadow)">
    <rect x="18" y="20" width="60" height="58" rx="8" fill="#fff"/>
    <path d="M18 34h60v14H18z" fill="#e9d8ff"/>
    <rect x="29" y="13" width="7" height="18" rx="3.5" fill="#fff"/>
    <rect x="60" y="13" width="7" height="18" rx="3.5" fill="#fff"/>
    <g fill="#5b21b6">
      <rect x="29" y="54" width="10" height="8" rx="1.2"/>
      <rect x="43" y="54" width="10" height="8" rx="1.2"/>
      <rect x="57" y="54" width="10" height="8" rx="1.2"/>
      <rect x="29" y="67" width="10" height="8" rx="1.2"/>
      <rect x="43" y="67" width="10" height="8" rx="1.2"/>
    </g>
    <path fill="none" stroke="#5b21b6" stroke-linecap="round" stroke-linejoin="round" stroke-width="5" d="M59 71l6 5 11-14"/>
    <circle cx="30" cy="41" r="3" fill="#5b21b6"/>
    <circle cx="48" cy="41" r="3" fill="#5b21b6"/>
    <circle cx="66" cy="41" r="3" fill="#5b21b6"/>
  </g>
</svg>
